{
	"asset":{
		"generator":"Khronos glTF Blender I/O v3.6.27",
		"version":"2.0"
	},
	"scene":0,
	"scenes":[
		{
			"name":"Scene",
			"nodes":[
				0
			]
		}
	],
	"nodes":[
		{
			"mesh":0,
			"name":"keyPlayer"
		}
	],
	"materials":[
		{
			"doubleSided":true,
			"name":"base",
			"pbrMetallicRoughness":{
				"baseColorFactor":[
					0.4019771218299866,
					0.30946844816207886,
					0.7991028428077698,
					1
				],
				"metallicFactor":0,
				"roughnessFactor":0.5
			}
		},
		{
			"doubleSided":true,
			"name":"btn_prev",
			"pbrMetallicRoughness":{
				"baseColorFactor":[
					0.7991029620170593,
					0.18447469174861908,
					0.15896087884902954,
					1
				],
				"metallicFactor":0,
				"roughnessFactor":0.5
			}
		},
		{
			"doubleSided":true,
			"name":"btn_play",
			"pbrMetallicRoughness":{
				"baseColorFactor":[
					1,
					0.5856526494026184,
					0.6993526220321655,
					1
				],
				"metallicFactor":0,
				"roughnessFactor":0.5
			}
		},
		{
			"doubleSided":true,
			"name":"btn_next",
			"pbrMetallicRoughness":{
				"baseColorFactor":[
					0.7991029620170593,
					0.18447469174861908,
					0.15896087884902954,
					1
				],
				"metallicFactor":0,
				"roughnessFactor":0.5
			}
		},
		{
			"doubleSided":true,
			"name":"baseBorder",
			"pbrMetallicRoughness":{
				"baseColorFactor":[
					0.2526099383831024,
					0.19542373716831207,
					0.49692073464393616,
					1
				],
				"metallicFactor":0,
				"roughnessFactor":0.5
			}
		}
	],
	"meshes":[
		{
			"extras":{
				"targetNames":[
					"Key 1",
					"Key 2",
					"Key 3"
				]
			},
			"name":"Plane",
			"primitives":[
				{
					"attributes":{
						"POSITION":0,
						"NORMAL":1,
						"TEXCOORD_0":2
					},
					"indices":3,
					"material":0,
					"targets":[
						{
							"POSITION":4,
							"NORMAL":5
						},
						{
							"POSITION":6,
							"NORMAL":7
						},
						{
							"POSITION":8,
							"NORMAL":9
						}
					]
				},
				{
					"attributes":{
						"POSITION":10,
						"NORMAL":11,
						"TEXCOORD_0":12
					},
					"indices":13,
					"material":1,
					"targets":[
						{
							"POSITION":14,
							"NORMAL":15
						},
						{
							"POSITION":16,
							"NORMAL":17
						},
						{
							"POSITION":18,
							"NORMAL":19
						}
					]
				},
				{
					"attributes":{
						"POSITION":20,
						"NORMAL":21,
						"TEXCOORD_0":22
					},
					"indices":23,
					"material":2,
					"targets":[
						{
							"POSITION":24,
							"NORMAL":25
						},
						{
							"POSITION":26,
							"NORMAL":27
						},
						{
							"POSITION":28,
							"NORMAL":29
						}
					]
				},
				{
					"attributes":{
						"POSITION":30,
						"NORMAL":31,
						"TEXCOORD_0":32
					},
					"indices":33,
					"material":3,
					"targets":[
						{
							"POSITION":34,
							"NORMAL":35
						},
						{
							"POSITION":36,
							"NORMAL":37
						},
						{
							"POSITION":38,
							"NORMAL":39
						}
					]
				},
				{
					"attributes":{
						"POSITION":40,
						"NORMAL":41,
						"TEXCOORD_0":42
					},
					"indices":43,
					"material":4,
					"targets":[
						{
							"POSITION":44,
							"NORMAL":45
						},
						{
							"POSITION":46,
							"NORMAL":47
						},
						{
							"POSITION":48,
							"NORMAL":49
						}
					]
				}
			],
			"weights":[
				0,
				0,
				0
			]
		}
	],
	"accessors":[
		{
			"bufferView":0,
			"componentType":5126,
			"count":3444,
			"max":[
				1,
				0.5669763088226318,
				3
			],
			"min":[
				-1,
				0,
				-3
			],
			"type":"VEC3"
		},
		{
			"bufferView":1,
			"componentType":5126,
			"count":3444,
			"type":"VEC3"
		},
		{
			"bufferView":2,
			"componentType":5126,
			"count":3444,
			"type":"VEC2"
		},
		{
			"bufferView":3,
			"componentType":5123,
			"count":5268,
			"type":"SCALAR"
		},
		{
			"bufferView":4,
			"componentType":5126,
			"count":3444,
			"max":[
				0,
				0,
				0
			],
			"min":[
				0,
				0,
				0
			],
			"type":"VEC3"
		},
		{
			"bufferView":5,
			"componentType":5126,
			"count":3444,
			"type":"VEC3"
		},
		{
			"bufferView":6,
			"componentType":5126,
			"count":3444,
			"max":[
				0,
				0,
				0
			],
			"min":[
				0,
				0,
				0
			],
			"type":"VEC3"
		},
		{
			"bufferView":7,
			"componentType":5126,
			"count":3444,
			"type":"VEC3"
		},
		{
			"bufferView":8,
			"componentType":5126,
			"count":3444,
			"max":[
				0,
				0,
				0
			],
			"min":[
				0,
				0,
				0
			],
			"type":"VEC3"
		},
		{
			"bufferView":9,
			"componentType":5126,
			"count":3444,
			"type":"VEC3"
		},
		{
			"bufferView":10,
			"componentType":5126,
			"count":1176,
			"max":[
				0.8378999829292297,
				1.0533164739608765,
				2.8329999446868896
			],
			"min":[
				-0.8378999829292297,
				0.3314972221851349,
				1.1670000553131104
			],
			"type":"VEC3"
		},
		{
			"bufferView":11,
			"componentType":5126,
			"count":1176,
			"type":"VEC3"
		},
		{
			"bufferView":12,
			"componentType":5126,
			"count":1176,
			"type":"VEC2"
		},
		{
			"bufferView":13,
			"componentType":5123,
			"count":1764,
			"type":"SCALAR"
		},
		{
			"bufferView":14,
			"componentType":5126,
			"count":1176,
			"max":[
				0,
				-0.30000001192092896,
				0
			],
			"min":[
				0,
				-0.30000001192092896,
				0
			],
			"type":"VEC3"
		},
		{
			"bufferView":15,
			"componentType":5126,
			"count":1176,
			"type":"VEC3"
		},
		{
			"bufferView":16,
			"componentType":5126,
			"count":1176,
			"max":[
				0,
				0,
				0
			],
			"min":[
				0,
				0,
				0
			],
			"type":"VEC3"
		},
		{
			"bufferView":17,
			"componentType":5126,
			"count":1176,
			"type":"VEC3"
		},
		{
			"bufferView":18,
			"componentType":5126,
			"count":1176,
			"max":[
				0,
				0,
				0
			],
			"min":[
				0,
				0,
				0
			],
			"type":"VEC3"
		},
		{
			"bufferView":19,
			"componentType":5126,
			"count":1176,
			"type":"VEC3"
		},
		{
			"bufferView":20,
			"componentType":5126,
			"count":1176,
			"max":[
				0.8378999829292297,
				1.0533164739608765,
				0.8329998850822449
			],
			"min":[
				-0.8378999829292297,
				0.3314972221851349,
				-0.8329998850822449
			],
			"type":"VEC3"
		},
		{
			"bufferView":21,
			"componentType":5126,
			"count":1176,
			"type":"VEC3"
		},
		{
			"bufferView":22,
			"componentType":5126,
			"count":1176,
			"type":"VEC2"
		},
		{
			"bufferView":23,
			"componentType":5123,
			"count":1764,
			"type":"SCALAR"
		},
		{
			"bufferView":24,
			"componentType":5126,
			"count":1176,
			"max":[
				0,
				0,
				0
			],
			"min":[
				0,
				0,
				0
			],
			"type":"VEC3"
		},
		{
			"bufferView":25,
			"componentType":5126,
			"count":1176,
			"type":"VEC3"
		},
		{
			"bufferView":26,
			"componentType":5126,
			"count":1176,
			"max":[
				0,
				-0.30000001192092896,
				0
			],
			"min":[
				0,
				-0.30000001192092896,
				0
			],
			"type":"VEC3"
		},
		{
			"bufferView":27,
			"componentType":5126,
			"count":1176,
			"type":"VEC3"
		},
		{
			"bufferView":28,
			"componentType":5126,
			"count":1176,
			"max":[
				0,
				0,
				0
			],
			"min":[
				0,
				0,
				0
			],
			"type":"VEC3"
		},
		{
			"bufferView":29,
			"componentType":5126,
			"count":1176,
			"type":"VEC3"
		},
		{
			"bufferView":30,
			"componentType":5126,
			"count":1176,
			"max":[
				0.8378999829292297,
				1.0533164739608765,
				-1.1670000553131104
			],
			"min":[
				-0.8378999829292297,
				0.3314972221851349,
				-2.8329999446868896
			],
			"type":"VEC3"
		},
		{
			"bufferView":31,
			"componentType":5126,
			"count":1176,
			"type":"VEC3"
		},
		{
			"bufferView":32,
			"componentType":5126,
			"count":1176,
			"type":"VEC2"
		},
		{
			"bufferView":33,
			"componentType":5123,
			"count":1764,
			"type":"SCALAR"
		},
		{
			"bufferView":34,
			"componentType":5126,
			"count":1176,
			"max":[
				0,
				0,
				0
			],
			"min":[
				0,
				0,
				0
			],
			"type":"VEC3"
		},
		{
			"bufferView":35,
			"componentType":5126,
			"count":1176,
			"type":"VEC3"
		},
		{
			"bufferView":36,
			"componentType":5126,
			"count":1176,
			"max":[
				0,
				0,
				0
			],
			"min":[
				0,
				0,
				0
			],
			"type":"VEC3"
		},
		{
			"bufferView":37,
			"componentType":5126,
			"count":1176,
			"type":"VEC3"
		},
		{
			"bufferView":38,
			"componentType":5126,
			"count":1176,
			"max":[
				0,
				-0.30000001192092896,
				0
			],
			"min":[
				0,
				-0.30000001192092896,
				0
			],
			"type":"VEC3"
		},
		{
			"bufferView":39,
			"componentType":5126,
			"count":1176,
			"type":"VEC3"
		},
		{
			"bufferView":40,
			"componentType":5126,
			"count":1440,
			"max":[
				0.9080016613006592,
				0.5642409920692444,
				2.904815673828125
			],
			"min":[
				-0.9080016613006592,
				0.27698835730552673,
				-2.904815673828125
			],
			"type":"VEC3"
		},
		{
			"bufferView":41,
			"componentType":5126,
			"count":1440,
			"type":"VEC3"
		},
		{
			"bufferView":42,
			"componentType":5126,
			"count":1440,
			"type":"VEC2"
		},
		{
			"bufferView":43,
			"componentType":5123,
			"count":2160,
			"type":"SCALAR"
		},
		{
			"bufferView":44,
			"componentType":5126,
			"count":1440,
			"max":[
				0,
				0,
				0
			],
			"min":[
				0,
				0,
				0
			],
			"type":"VEC3"
		},
		{
			"bufferView":45,
			"componentType":5126,
			"count":1440,
			"type":"VEC3"
		},
		{
			"bufferView":46,
			"componentType":5126,
			"count":1440,
			"max":[
				0,
				0,
				0
			],
			"min":[
				0,
				0,
				0
			],
			"type":"VEC3"
		},
		{
			"bufferView":47,
			"componentType":5126,
			"count":1440,
			"type":"VEC3"
		},
		{
			"bufferView":48,
			"componentType":5126,
			"count":1440,
			"max":[
				0,
				0,
				0
			],
			"min":[
				0,
				0,
				0
			],
			"type":"VEC3"
		},
		{
			"bufferView":49,
			"componentType":5126,
			"count":1440,
			"type":"VEC3"
		}
	],
	"bufferViews":[
		{
			"buffer":0,
			"byteLength":41328,
			"byteOffset":0,
			"target":34962
		},
		{
			"buffer":0,
			"byteLength":41328,
			"byteOffset":41328,
			"target":34962
		},
		{
			"buffer":0,
			"byteLength":27552,
			"byteOffset":82656,
			"target":34962
		},
		{
			"buffer":0,
			"byteLength":10536,
			"byteOffset":110208,
			"target":34963
		},
		{
			"buffer":0,
			"byteLength":41328,
			"byteOffset":120744,
			"target":34962
		},
		{
			"buffer":0,
			"byteLength":41328,
			"byteOffset":162072,
			"target":34962
		},
		{
			"buffer":0,
			"byteLength":41328,
			"byteOffset":203400,
			"target":34962
		},
		{
			"buffer":0,
			"byteLength":41328,
			"byteOffset":244728,
			"target":34962
		},
		{
			"buffer":0,
			"byteLength":41328,
			"byteOffset":286056,
			"target":34962
		},
		{
			"buffer":0,
			"byteLength":41328,
			"byteOffset":327384,
			"target":34962
		},
		{
			"buffer":0,
			"byteLength":14112,
			"byteOffset":368712,
			"target":34962
		},
		{
			"buffer":0,
			"byteLength":14112,
			"byteOffset":382824,
			"target":34962
		},
		{
			"buffer":0,
			"byteLength":9408,
			"byteOffset":396936,
			"target":34962
		},
		{
			"buffer":0,
			"byteLength":3528,
			"byteOffset":406344,
			"target":34963
		},
		{
			"buffer":0,
			"byteLength":14112,
			"byteOffset":409872,
			"target":34962
		},
		{
			"buffer":0,
			"byteLength":14112,
			"byteOffset":423984,
			"target":34962
		},
		{
			"buffer":0,
			"byteLength":14112,
			"byteOffset":438096,
			"target":34962
		},
		{
			"buffer":0,
			"byteLength":14112,
			"byteOffset":452208,
			"target":34962
		},
		{
			"buffer":0,
			"byteLength":14112,
			"byteOffset":466320,
			"target":34962
		},
		{
			"buffer":0,
			"byteLength":14112,
			"byteOffset":480432,
			"target":34962
		},
		{
			"buffer":0,
			"byteLength":14112,
			"byteOffset":494544,
			"target":34962
		},
		{
			"buffer":0,
			"byteLength":14112,
			"byteOffset":508656,
			"target":34962
		},
		{
			"buffer":0,
			"byteLength":9408,
			"byteOffset":522768,
			"target":34962
		},
		{
			"buffer":0,
			"byteLength":3528,
			"byteOffset":532176,
			"target":34963
		},
		{
			"buffer":0,
			"byteLength":14112,
			"byteOffset":535704,
			"target":34962
		},
		{
			"buffer":0,
			"byteLength":14112,
			"byteOffset":549816,
			"target":34962
		},
		{
			"buffer":0,
			"byteLength":14112,
			"byteOffset":563928,
			"target":34962
		},
		{
			"buffer":0,
			"byteLength":14112,
			"byteOffset":578040,
			"target":34962
		},
		{
			"buffer":0,
			"byteLength":14112,
			"byteOffset":592152,
			"target":34962
		},
		{
			"buffer":0,
			"byteLength":14112,
			"byteOffset":606264,
			"target":34962
		},
		{
			"buffer":0,
			"byteLength":14112,
			"byteOffset":620376,
			"target":34962
		},
		{
			"buffer":0,
			"byteLength":14112,
			"byteOffset":634488,
			"target":34962
		},
		{
			"buffer":0,
			"byteLength":9408,
			"byteOffset":648600,
			"target":34962
		},
		{
			"buffer":0,
			"byteLength":3528,
			"byteOffset":658008,
			"target":34963
		},
		{
			"buffer":0,
			"byteLength":14112,
			"byteOffset":661536,
			"target":34962
		},
		{
			"buffer":0,
			"byteLength":14112,
			"byteOffset":675648,
			"target":34962
		},
		{
			"buffer":0,
			"byteLength":14112,
			"byteOffset":689760,
			"target":34962
		},
		{
			"buffer":0,
			"byteLength":14112,
			"byteOffset":703872,
			"target":34962
		},
		{
			"buffer":0,
			"byteLength":14112,
			"byteOffset":717984,
			"target":34962
		},
		{
			"buffer":0,
			"byteLength":14112,
			"byteOffset":732096,
			"target":34962
		},
		{
			"buffer":0,
			"byteLength":17280,
			"byteOffset":746208,
			"target":34962
		},
		{
			"buffer":0,
			"byteLength":17280,
			"byteOffset":763488,
			"target":34962
		},
		{
			"buffer":0,
			"byteLength":11520,
			"byteOffset":780768,
			"target":34962
		},
		{
			"buffer":0,
			"byteLength":4320,
			"byteOffset":792288,
			"target":34963
		},
		{
			"buffer":0,
			"byteLength":17280,
			"byteOffset":796608,
			"target":34962
		},
		{
			"buffer":0,
			"byteLength":17280,
			"byteOffset":813888,
			"target":34962
		},
		{
			"buffer":0,
			"byteLength":17280,
			"byteOffset":831168,
			"target":34962
		},
		{
			"buffer":0,
			"byteLength":17280,
			"byteOffset":848448,
			"target":34962
		},
		{
			"buffer":0,
			"byteLength":17280,
			"byteOffset":865728,
			"target":34962
		},
		{
			"buffer":0,
			"byteLength":17280,
			"byteOffset":883008,
			"target":34962
		}
	],
	"buffers":[
		{
			"byteLength":900288,
			"uri":"data:application/octet-stream;base64,"
		}
	]
}
